<?xml version="1.0" encoding="UTF-8" standalone="no"?>
<!DOCTYPE svg PUBLIC "-//W3C//DTD SVG 1.1//EN" "http://www.w3.org/Graphics/SVG/1.1/DTD/svg11.dtd">
<!-- Generated by graphviz version 2.40.1 (20161225.0304)
 -->
<!-- Title: G Pages: 1 -->
<svg width="428pt" height="438pt" viewBox="0.00 0.00 428.00 438.27" xmlns="http://www.w3.org/2000/svg" xmlns:xlink="http://www.w3.org/1999/xlink">
<g id="graph0" class="graph" transform="scale(1 1) rotate(0) translate(4 434.2672)">
<title>G</title>
<polygon fill="#ffffff" stroke="transparent" points="-4,4 -4,-434.2672 424,-434.2672 424,4 -4,4"/>
<g id="clust1" class="cluster">
<title>cluster_0</title>
<polygon fill="#d3d3d3" stroke="#d3d3d3" points="8,-8 8,-386.2672 218,-386.2672 218,-8 8,-8"/>
<text text-anchor="middle" x="113" y="-369.6672" font-family="Times,serif" font-size="14.00" fill="#000000">true</text>
</g>
<g id="clust2" class="cluster">
<title>cluster_1</title>
<polygon fill="none" stroke="#0000ff" points="226,-156.404 226,-386.2672 412,-386.2672 412,-156.404 226,-156.404"/>
<text text-anchor="middle" x="319" y="-369.6672" font-family="Times,serif" font-size="14.00" fill="#000000">false</text>
</g>
<!-- get_return_value -->
<g id="node1" class="node">
<title>get_return_value</title>
<ellipse fill="#ffffff" stroke="#ffffff" cx="123" cy="-335.4672" rx="76.4266" ry="18"/>
<text text-anchor="middle" x="123" y="-331.2672" font-family="Times,serif" font-size="14.00" fill="#000000">get_return_value</text>
</g>
<!-- JUMP_TO_RETURN -->
<g id="node2" class="node">
<title>JUMP_TO_RETURN</title>
<ellipse fill="#ffffff" stroke="#ffffff" cx="113" cy="-222.9356" rx="96.7312" ry="18"/>
<text text-anchor="middle" x="113" y="-218.7356" font-family="Times,serif" font-size="14.00" fill="#000000">JUMP_TO_RETURN</text>
</g>
<!-- get_return_value&#45;&gt;JUMP_TO_RETURN -->
<g id="edge3" class="edge">
<title>get_return_value-&gt;JUMP_TO_RETURN</title>
<path fill="none" stroke="#000000" d="M121.3933,-317.3871C119.8042,-299.5046 117.3493,-271.8785 115.5042,-251.1152"/>
<polygon fill="#000000" stroke="#000000" points="118.9742,-250.6218 114.6027,-240.9709 112.0017,-251.2415 118.9742,-250.6218"/>
</g>
<!-- return_from_true -->
<g id="node3" class="node">
<title>return_from_true</title>
<polygon fill="#ffffff" stroke="#ffffff" points="169.4047,-128.6067 56.5953,-128.6067 56.5953,-15.7973 169.4047,-15.7973 169.4047,-128.6067"/>
<polyline fill="none" stroke="#ffffff" points="68.5953,-128.6067 56.5953,-116.6067 "/>
<polyline fill="none" stroke="#ffffff" points="56.5953,-27.7973 68.5953,-15.7973 "/>
<polyline fill="none" stroke="#ffffff" points="157.4047,-15.7973 169.4047,-27.7973 "/>
<polyline fill="none" stroke="#ffffff" points="169.4047,-116.6067 157.4047,-128.6067 "/>
<text text-anchor="middle" x="113" y="-68.002" font-family="Times,serif" font-size="14.00" fill="#000000">return_from_true</text>
</g>
<!-- JUMP_TO_RETURN&#45;&gt;return_from_true -->
<g id="edge4" class="edge">
<title>JUMP_TO_RETURN-&gt;return_from_true</title>
<path fill="none" stroke="#000000" d="M113,-204.7536C113,-188.2417 113,-162.846 113,-138.6854"/>
<polygon fill="#000000" stroke="#000000" points="116.5001,-138.4359 113,-128.4359 109.5001,-138.436 116.5001,-138.4359"/>
</g>
<!-- other_return_value -->
<g id="node4" class="node">
<title>other_return_value</title>
<ellipse fill="#d3d3d3" stroke="#000000" cx="319" cy="-335.4672" rx="84.5131" ry="18"/>
<text text-anchor="middle" x="319" y="-331.2672" font-family="Times,serif" font-size="14.00" fill="#000000">other_return_value</text>
</g>
<!-- return_from_false -->
<g id="node5" class="node">
<title>return_from_false</title>
<polygon fill="#d3d3d3" stroke="#000000" points="377.5632,-281.4988 260.4368,-281.4988 260.4368,-164.3724 377.5632,-164.3724 377.5632,-281.4988"/>
<polyline fill="none" stroke="#000000" points="272.4368,-281.4988 260.4368,-269.4988 "/>
<polyline fill="none" stroke="#000000" points="260.4368,-176.3724 272.4368,-164.3724 "/>
<polyline fill="none" stroke="#000000" points="365.5632,-164.3724 377.5632,-176.3724 "/>
<polyline fill="none" stroke="#000000" points="377.5632,-269.4988 365.5632,-281.4988 "/>
<text text-anchor="middle" x="319" y="-218.7356" font-family="Times,serif" font-size="14.00" fill="#000000">return_from_false</text>
</g>
<!-- other_return_value&#45;&gt;return_from_false -->
<g id="edge5" class="edge">
<title>other_return_value-&gt;return_from_false</title>
<path fill="none" stroke="#000000" d="M319,-317.3871C319,-310.1781 319,-301.3858 319,-292.0979"/>
<polygon fill="#000000" stroke="#000000" points="322.5001,-291.8766 319,-281.8766 315.5001,-291.8766 322.5001,-291.8766"/>
</g>
<!-- condition -->
<g id="node6" class="node">
<title>condition</title>
<polygon fill="none" stroke="#000000" points="226,-430.2672 158.6022,-412.2672 226,-394.2672 293.3978,-412.2672 226,-430.2672"/>
<polyline fill="none" stroke="#000000" points="170.1959,-415.3635 170.1959,-409.1709 "/>
<polyline fill="none" stroke="#000000" points="214.4063,-397.3635 237.5937,-397.3635 "/>
<polyline fill="none" stroke="#000000" points="281.8041,-409.1709 281.8041,-415.3635 "/>
<polyline fill="none" stroke="#000000" points="237.5937,-427.1709 214.4063,-427.1709 "/>
<text text-anchor="middle" x="226" y="-408.0672" font-family="Times,serif" font-size="14.00" fill="#000000">condition</text>
</g>
<!-- condition&#45;&gt;get_return_value -->
<g id="edge1" class="edge">
<title>condition-&gt;get_return_value</title>
<path fill="none" stroke="#000000" d="M208.0588,-398.8897C193.2983,-387.8838 172.0234,-372.0206 154.4438,-358.9126"/>
<polygon fill="#000000" stroke="#000000" points="156.2643,-355.9042 146.1553,-352.7325 152.08,-361.516 156.2643,-355.9042"/>
</g>
<!-- condition&#45;&gt;other_return_value -->
<g id="edge2" class="edge">
<title>condition-&gt;other_return_value</title>
<path fill="none" stroke="#000000" d="M242.6265,-398.5369C255.7069,-387.7351 274.2563,-372.4168 289.7987,-359.5818"/>
<polygon fill="#000000" stroke="#000000" points="292.1253,-362.1997 297.6074,-353.1334 287.668,-356.8022 292.1253,-362.1997"/>
</g>
</g>
</svg>