<?xml version="1.0" encoding="UTF-8" standalone="no"?>
<!DOCTYPE svg PUBLIC "-//W3C//DTD SVG 1.1//EN" "http://www.w3.org/Graphics/SVG/1.1/DTD/svg11.dtd">
<!-- Generated by graphviz version 2.40.1 (20161225.0304)
 -->
<!-- Title: G Pages: 1 -->
<svg width="428pt" height="283pt" viewBox="0.00 0.00 428.00 283.03" xmlns="http://www.w3.org/2000/svg" xmlns:xlink="http://www.w3.org/1999/xlink">
<g id="graph0" class="graph" transform="scale(1 1) rotate(0) translate(4 279.0264)">
<title>G</title>
<polygon fill="#ffffff" stroke="transparent" points="-4,4 -4,-279.0264 424,-279.0264 424,4 -4,4"/>
<g id="clust1" class="cluster">
<title>cluster_0</title>
<polygon fill="#d3d3d3" stroke="#d3d3d3" points="8,-77.4264 8,-231.0264 218,-231.0264 218,-77.4264 8,-77.4264"/>
<text text-anchor="middle" x="113" y="-214.4264" font-family="Times,serif" font-size="14.00" fill="#000000">true</text>
</g>
<g id="clust2" class="cluster">
<title>cluster_1</title>
<polygon fill="none" stroke="#0000ff" points="226,-77.4264 226,-154.2264 412,-154.2264 412,-77.4264 226,-77.4264"/>
<text text-anchor="middle" x="319" y="-137.6264" font-family="Times,serif" font-size="14.00" fill="#000000">false</text>
</g>
<!-- get_return_value -->
<g id="node1" class="node">
<title>get_return_value</title>
<ellipse fill="#ffffff" stroke="#ffffff" cx="123" cy="-180.2264" rx="76.4266" ry="18"/>
<text text-anchor="middle" x="123" y="-176.0264" font-family="Times,serif" font-size="14.00" fill="#000000">get_return_value</text>
</g>
<!-- JUMP_TO_RETURN -->
<g id="node2" class="node">
<title>JUMP_TO_RETURN</title>
<ellipse fill="#ffffff" stroke="#ffffff" cx="113" cy="-103.4264" rx="96.7312" ry="18"/>
<text text-anchor="middle" x="113" y="-99.2264" font-family="Times,serif" font-size="14.00" fill="#000000">JUMP_TO_RETURN</text>
</g>
<!-- get_return_value&#45;&gt;JUMP_TO_RETURN -->
<g id="edge3" class="edge">
<title>get_return_value-&gt;JUMP_TO_RETURN</title>
<path fill="none" stroke="#000000" d="M120.6301,-162.0259C119.447,-152.9396 117.9893,-141.744 116.666,-131.5813"/>
<polygon fill="#000000" stroke="#000000" points="120.1148,-130.9606 115.3528,-121.4963 113.1734,-131.8645 120.1148,-130.9606"/>
</g>
<!-- return -->
<g id="node5" class="node">
<title>return</title>
<polygon fill="none" stroke="#000000" points="240.9283,-49.6415 191.0717,-49.6415 191.0717,.2151 240.9283,.2151 240.9283,-49.6415"/>
<polyline fill="none" stroke="#000000" points="203.0717,-49.6415 191.0717,-37.6415 "/>
<polyline fill="none" stroke="#000000" points="191.0717,-11.7849 203.0717,.2151 "/>
<polyline fill="none" stroke="#000000" points="228.9283,.2151 240.9283,-11.7849 "/>
<polyline fill="none" stroke="#000000" points="240.9283,-37.6415 228.9283,-49.6415 "/>
<text text-anchor="middle" x="216" y="-20.5132" font-family="Times,serif" font-size="14.00" fill="#000000">return</text>
</g>
<!-- JUMP_TO_RETURN&#45;&gt;return -->
<g id="edge4" class="edge">
<title>JUMP_TO_RETURN-&gt;return</title>
<path fill="none" stroke="#000000" d="M136.1152,-85.7616C149.9275,-75.2062 167.7013,-61.6233 182.9755,-49.9507"/>
<polygon fill="#000000" stroke="#000000" points="185.3427,-52.5467 191.163,-43.6938 181.0923,-46.9849 185.3427,-52.5467"/>
</g>
<!-- other_return_value -->
<g id="node3" class="node">
<title>other_return_value</title>
<ellipse fill="#d3d3d3" stroke="#000000" cx="319" cy="-103.4264" rx="84.5131" ry="18"/>
<text text-anchor="middle" x="319" y="-99.2264" font-family="Times,serif" font-size="14.00" fill="#000000">other_return_value</text>
</g>
<!-- other_return_value&#45;&gt;return -->
<g id="edge5" class="edge">
<title>other_return_value-&gt;return</title>
<path fill="none" stroke="#000000" d="M296.141,-85.9574C282.3392,-75.41 264.5134,-61.7874 249.1793,-50.069"/>
<polygon fill="#000000" stroke="#000000" points="251.0288,-47.0774 240.9581,-43.7863 246.7784,-52.6393 251.0288,-47.0774"/>
</g>
<!-- condition -->
<g id="node4" class="node">
<title>condition</title>
<polygon fill="none" stroke="#000000" points="205,-275.0264 137.6022,-257.0264 205,-239.0264 272.3978,-257.0264 205,-275.0264"/>
<polyline fill="none" stroke="#000000" points="149.1959,-260.1227 149.1959,-253.9301 "/>
<polyline fill="none" stroke="#000000" points="193.4063,-242.1227 216.5937,-242.1227 "/>
<polyline fill="none" stroke="#000000" points="260.8041,-253.9301 260.8041,-260.1227 "/>
<polyline fill="none" stroke="#000000" points="216.5937,-271.9301 193.4063,-271.9301 "/>
<text text-anchor="middle" x="205" y="-252.8264" font-family="Times,serif" font-size="14.00" fill="#000000">condition</text>
</g>
<!-- condition&#45;&gt;get_return_value -->
<g id="edge1" class="edge">
<title>condition-&gt;get_return_value</title>
<path fill="none" stroke="#000000" d="M189.9599,-242.9401C178.5968,-232.2975 162.7142,-217.4222 149.2692,-204.8297"/>
<polygon fill="#000000" stroke="#000000" points="151.3785,-202.0099 141.6872,-197.7286 146.5934,-207.119 151.3785,-202.0099"/>
</g>
<!-- condition&#45;&gt;other_return_value -->
<g id="edge2" class="edge">
<title>condition-&gt;other_return_value</title>
<path fill="none" stroke="#000000" d="M216.3475,-241.7371C235.7861,-215.5461 275.6673,-161.8115 299.5951,-129.572"/>
<polygon fill="#000000" stroke="#000000" points="302.4523,-131.595 305.6016,-121.479 296.8312,-127.4231 302.4523,-131.595"/>
</g>
</g>
</svg>